<svg id="Layer_1" enable-background="new 0 0 512 512" height="512" viewBox="0 0 512 512" width="512" xmlns="http://www.w3.org/2000/svg"><g><g clip-rule="evenodd" fill-rule="evenodd"><path d="m206 76h100v40h40v-60c0-11-9-20-20-20h-140c-10.999 0-20 9-20 20v60h40z" fill="#d1a19e"/><path d="m306 116h-100-40-112.682c-23.821 0-43.318 19.497-43.318 43.319v83.317c0 16.753 9.983 28.55 23.955 36.058 5.895 3.167 12.499 5.571 19.363 7.261l26.869 6.616v-9.684c0-5.5 4.499-10 9.999-10h80.001c5.5 0 10 4.499 10 10v34.307l26.094 6.425c15.8 3.856 31.249 5.657 49.719 5.657s33.919-1.802 49.719-5.657l26.094-6.425v-34.307c0-5.5 4.499-10 9.999-10h80.001c5.5 0 10 4.499 10 10v9.684l26.87-6.616c6.864-1.69 13.468-4.094 19.363-7.261 13.971-7.509 23.954-19.307 23.954-36.058v-83.317c0-23.819-19.496-43.319-43.318-43.319h-112.682z" fill="#c68a86"/><path d="m170.187 272.886h-80c-5.5 0-9.999 4.499-9.999 10v9.684 30.316c0 5.5 4.499 9.999 9.999 9.999h80.001c5.5 0 10-4.499 10-9.999v-5.694-34.307c-.001-5.499-4.5-9.999-10.001-9.999z" fill="#ffc144"/><path d="m170.187 332.886h-80c0 22.092 17.909 40.001 40.001 40.001s40-17.909 39.999-40.001z" fill="#ffcd69"/><path d="m331.813 282.886v34.307 5.694c0 5.5 4.499 9.999 9.999 9.999h80.001c5.5 0 10-4.499 10-9.999v-30.317-9.684c0-5.5-4.5-10-10-10h-80.001c-5.5 0-9.999 4.5-9.999 10z" fill="#ffc144"/><path d="m421.813 332.886h-80.001c0 22.092 17.909 40.001 40.001 40.001s40-17.909 40-40.001z" fill="#ffcd69"/><path d="m381.813 372.887c-22.092 0-40.001-17.909-40.001-40.001-5.5 0-9.999-4.499-9.999-9.999v-5.694l-26.094 6.425c-15.8 3.856-31.249 5.657-49.719 5.657s-33.918-1.802-49.719-5.657l-26.094-6.425v5.694c0 5.5-4.5 9.999-10 9.999 0 22.092-17.908 40.001-40 40.001s-40.001-17.909-40.001-40.001c-5.5 0-9.999-4.499-9.999-9.999v-30.317l-26.869-6.616c-6.864-1.69-13.468-4.094-19.363-7.261l-7.955 157.307c-1.111 21.972 18 40 40 40h380c22 0 41.111-18.028 40-40l-7.955-157.307c-5.895 3.168-12.499 5.572-19.363 7.261l-26.87 6.616v30.316c0 5.5-4.5 9.999-10 9.999.001 22.093-17.907 40.002-39.999 40.002z" fill="#d1a19e"/></g><g><path d="m458.683 106h-102.683v-50c0-16.542-13.458-30-30-30h-140c-16.542 0-30 13.458-30 30v50h-102.682c-29.4 0-53.318 23.919-53.318 53.318v83.317c0 16.942 8.511 31.408 23.668 41.489l-7.655 151.37c-.646 12.776 4.006 25.08 13.099 34.646 9.582 10.08 23.027 15.86 36.888 15.86h380c13.86 0 27.306-5.781 36.888-15.86 9.093-9.564 13.745-21.868 13.099-34.645l-7.655-151.37c15.157-10.081 23.668-24.547 23.668-41.489v-83.317c0-29.4-23.918-53.319-53.317-53.319zm-282.683-50c0-5.514 4.486-10 10-10h140c5.514 0 10 4.486 10 10v50h-20v-30c0-5.522-4.477-10-10-10h-100c-5.523 0-10 4.478-10 10v30h-20zm120 50h-80v-20h80zm180.013 330.505c.367 7.249-2.339 14.301-7.62 19.854-5.824 6.127-13.986 9.641-22.393 9.641h-380c-8.406 0-16.568-3.514-22.393-9.641-5.28-5.554-7.986-12.604-7.62-19.854l7.235-143.061c2.479.819 5.043 1.565 7.705 2.22l19.26 4.742v22.48c0 7.624 4.291 14.26 10.582 17.634 3.687 23.96 24.443 42.366 49.418 42.366s45.731-18.407 49.418-42.366c4.328-2.321 7.689-6.194 9.377-10.864l14.928 3.676c16.842 4.109 32.907 5.942 52.089 5.942s35.248-1.833 52.109-5.947l14.908-3.67c1.688 4.67 5.049 8.543 9.377 10.864 3.687 23.96 24.443 42.366 49.418 42.366 24.976 0 45.732-18.407 49.418-42.367 6.291-3.373 10.582-10.01 10.582-17.633v-22.48l19.26-4.743c2.662-.655 5.226-1.402 7.705-2.22zm-385.807-113.618c-.006 0-.013-.001-.019-.001l-.002-39.999 80.002-.001v40zm68.262 19.999c-4.128 11.64-15.244 20.001-28.281 20.001s-24.153-8.361-28.281-20.001zm263.345-20-79.982.001c-.006 0-.013-.001-.019-.001l-.002-39.999 80.003-.001zm-11.72 20c-4.128 11.64-15.244 20.001-28.281 20.001s-24.153-8.361-28.281-20.001zm81.907-100.25c0 21.593-22.372 30.325-35.708 33.608l-14.731 3.627c-1.461-9.598-9.747-16.985-19.748-16.985h-80.001c-11.028 0-20 8.972-20 19.999v26.47l-18.464 4.546c-15.226 3.715-29.829 5.372-47.348 5.372s-32.122-1.657-47.328-5.367l-18.485-4.551v-26.47c0-11.027-8.972-19.999-20-19.999h-80c-10.001 0-18.286 7.386-19.747 16.985l-14.731-3.627c-13.336-3.283-35.709-12.015-35.709-33.608v-83.317c0-18.373 14.946-33.319 33.318-33.319h405.365c18.371 0 33.317 14.946 33.317 33.318z"/><path d="m108.314 146.001h-54.996c-5.523 0-10 4.478-10 10s4.477 10 10 10h54.996c5.523 0 10-4.478 10-10s-4.477-10-10-10z"/><path d="m153.311 146.001c-5.523 0-10 4.478-10 10s4.477 10 10 10h.007c5.523 0 9.997-4.478 9.997-10s-4.482-10-10.004-10z"/></g></g></svg>